<?xml version="1.0" encoding="utf-8"?>
<!-- Generator: Adobe Illustrator 16.0.0, SVG Export Plug-In . SVG Version: 6.00 Build 0)  -->
<!DOCTYPE svg PUBLIC "-//W3C//DTD SVG 1.1//EN" "http://www.w3.org/Graphics/SVG/1.1/DTD/svg11.dtd">
<svg version="1.1" id="Layer_1" xmlns="http://www.w3.org/2000/svg" xmlns:xlink="http://www.w3.org/1999/xlink" x="0px" y="0px"
	 width="791.223px" height="164.522px" viewBox="93.298 135.906 791.223 164.522"
	 enable-background="new 93.298 135.906 791.223 164.522" xml:space="preserve">
<g>
	<path fill="#472F31" d="M228.054,194.532c12.291,12.291,11.999,32.505-0.649,45.153L197.2,269.893
		c-12.648,12.646-32.865,12.938-45.155,0.646L122.7,241.196c-12.289-12.289-11.998-32.505,0.651-45.155l30.204-30.202
		c12.648-12.648,32.866-12.939,45.155-0.652L228.054,194.532z"/>
	<g>
		<path fill="#32947B" d="M228.054,194.532l-27.956-27.957v33.652h-49.08v69.289l1.026,1.023c12.29,12.289,32.507,12,45.155-0.646
			l2.898-2.9l27.307-27.307C240.053,227.037,240.345,206.823,228.054,194.532z"/>
	</g>
	<circle fill="#F7C7A8" cx="125.338" cy="167.946" r="32.04"/>
	<path fill="#F7C7A8" d="M257.818,268.385c0,17.695-14.345,32.043-32.038,32.043c-17.696,0-32.041-14.348-32.041-32.043
		c0-17.693,14.345-32.037,32.041-32.037C243.473,236.347,257.818,250.692,257.818,268.385z"/>
	<g>
		<path fill="#32947B" d="M320.597,201.297c1.364,1.401,3.188,2.416,5.477,3.043c2.282,0.627,5.087,0.938,8.405,0.938h87.857
			c1.551,0,2.857-0.274,3.93-0.83c1.066-0.555,1.951-1.271,2.654-2.155c0.697-0.888,1.217-1.861,1.547-2.935
			c0.332-1.065,0.498-2.117,0.498-3.152c0-1.03-0.166-2.082-0.498-3.151c-0.33-1.066-0.828-2.027-1.494-2.875
			c-0.662-0.849-1.547-1.551-2.654-2.103c-1.104-0.555-2.432-0.83-3.982-0.83h-81.441c-1.181,0-1.992-0.223-2.433-0.664
			c-0.445-0.442-0.664-1.254-0.664-2.436V162.67c0-1.179,0.219-1.972,0.664-2.378c0.44-0.403,1.252-0.608,2.433-0.608h79.673
			c1.547,0,2.855-0.275,3.926-0.83c1.068-0.553,1.953-1.252,2.654-2.1c0.699-0.849,1.197-1.81,1.494-2.88
			c0.295-1.067,0.443-2.116,0.443-3.151c0-1.033-0.148-2.082-0.443-3.152c-0.297-1.067-0.773-2.047-1.438-2.932
			s-1.551-1.605-2.656-2.156c-1.107-0.555-2.434-0.83-3.98-0.83h-86.09c-3.318,0-6.123,0.314-8.405,0.939
			c-2.288,0.627-4.112,1.643-5.477,3.043c-1.367,1.399-2.362,3.209-2.987,5.42c-0.628,2.213-0.941,4.906-0.941,8.076v28.561
			c0,3.244,0.313,5.973,0.941,8.187C318.235,198.088,319.23,199.895,320.597,201.297z"/>
		<path fill="#32947B" d="M438.967,223.73c-0.332-1.068-0.867-2.045-1.604-2.93c-0.74-0.888-1.699-1.588-2.877-2.104
			c-1.182-0.516-2.619-0.772-4.314-0.772h-109.63c-1.698,0-3.137,0.258-4.315,0.772c-1.181,0.516-2.14,1.216-2.877,2.104
			c-0.737,0.885-1.271,1.86-1.603,2.93c-0.332,1.072-0.498,2.156-0.498,3.266c0,2.285,0.721,4.353,2.157,6.193
			c1.437,1.844,3.816,2.766,7.136,2.766h31.197h15.321v40.401c0,1.699,0.26,3.135,0.775,4.314c0.517,1.182,1.217,2.141,2.102,2.877
			c0.886,0.734,1.863,1.27,2.932,1.604c1.07,0.332,2.157,0.498,3.264,0.498c2.286,0,4.353-0.721,6.194-2.158
			c1.844-1.438,2.768-3.816,2.768-7.135v-31.198v-9.203h45.078c3.318,0,5.697-0.922,7.137-2.766
			c1.438-1.842,2.156-3.908,2.156-6.193C439.465,225.886,439.299,224.802,438.967,223.73z"/>
	</g>
	<g>
		<path fill="#32947B" d="M585.009,263.856c-0.329-1.141-0.885-2.156-1.657-3.039c-0.775-0.887-1.771-1.605-2.988-2.158
			c-1.217-0.555-2.674-0.83-4.369-0.83H466.19c-1.697,0-3.152,0.275-4.369,0.83c-1.217,0.553-2.213,1.271-2.986,2.158
			c-0.773,0.883-1.328,1.898-1.66,3.039c-0.33,1.145-0.498,2.27-0.498,3.375c0,1.182,0.184,2.324,0.555,3.43
			c0.365,1.107,0.939,2.104,1.713,2.986c0.773,0.887,1.752,1.586,2.932,2.104c1.178,0.516,2.617,0.773,4.314,0.773h109.803
			c1.695,0,3.133-0.258,4.314-0.773c1.178-0.518,2.155-1.217,2.93-2.104c0.775-0.883,1.348-1.879,1.717-2.986
			c0.367-1.105,0.553-2.248,0.553-3.43C585.507,266.125,585.341,265,585.009,263.856z"/>
		<path fill="#32947B" d="M467.188,215.528c1.363,1.4,3.189,2.414,5.477,3.043c2.283,0.626,5.088,0.938,8.406,0.938h90.409
			c1.547,0,2.856-0.293,3.926-0.885c1.068-0.588,1.955-1.325,2.654-2.211c0.701-0.885,1.219-1.881,1.551-2.985
			c0.33-1.109,0.498-2.176,0.498-3.209s-0.168-2.084-0.498-3.154c-0.332-1.068-0.83-2.047-1.494-2.932
			c-0.664-0.886-1.551-1.621-2.654-2.211c-1.108-0.591-2.436-0.888-3.981-0.888h-85.434c-1.182,0-1.99-0.221-2.434-0.664
			c-0.443-0.44-0.662-1.252-0.662-2.432v-33.719c0-1.181,0.219-1.974,0.662-2.381c0.443-0.402,1.252-0.607,2.434-0.607h83.663
			c1.55,0,2.855-0.277,3.929-0.828c1.067-0.555,1.95-1.272,2.653-2.158c0.701-0.887,1.199-1.883,1.494-2.985
			c0.293-1.107,0.441-2.174,0.441-3.209c0-1.033-0.148-2.103-0.441-3.207c-0.295-1.107-0.774-2.104-1.438-2.988
			s-1.548-1.621-2.656-2.213c-1.104-0.59-2.433-0.885-3.98-0.885h-88.637c-3.318,0-6.123,0.313-8.406,0.938
			c-2.287,0.629-4.113,1.644-5.477,3.043c-1.367,1.402-2.363,3.209-2.988,5.422c-0.627,2.211-0.941,4.904-0.941,8.074v41.687
			c0,3.243,0.314,5.973,0.941,8.186C464.824,212.317,465.821,214.129,467.188,215.528z"/>
	</g>
	<path fill="#32947B" d="M733.563,142.733c-0.563-1.236-1.293-2.25-2.193-3.037c-0.899-0.787-1.934-1.352-3.094-1.688
		c-1.162-0.338-2.308-0.506-3.433-0.506c-1.2,0-2.362,0.184-3.487,0.563c-1.125,0.375-2.138,0.957-3.037,1.744
		c-0.9,0.787-1.611,1.779-2.137,2.979c-0.523,1.197-0.787,2.664-0.787,4.39v60.627c0,1.725,0.264,3.188,0.787,4.389
		c0.524,1.197,1.235,2.193,2.137,2.98c0.9,0.789,1.912,1.369,3.037,1.744s2.287,0.563,3.487,0.563c1.125,0,2.271-0.168,3.433-0.506
		c1.16-0.338,2.192-0.9,3.094-1.688c0.9-0.791,1.631-1.803,2.193-3.036c0.563-1.238,0.844-2.722,0.844-4.445v-60.627
		C734.407,145.454,734.126,143.971,733.563,142.733z"/>
	<path fill="#32947B" d="M621.382,215.055h54.396c1.547,0,2.859-0.295,3.928-0.885c1.069-0.591,1.955-1.328,2.654-2.214
		c0.701-0.887,1.217-1.881,1.551-2.985c0.332-1.107,0.496-2.176,0.496-3.209s-0.164-0.646-0.496-1.713
		c-0.334-1.07-0.83-2.05-1.494-2.935c-0.664-0.883-1.549-1.619-2.654-2.211c-1.108-0.59-2.438-0.885-3.983-0.885h-49.42
		c-1.183,0-1.992-0.223-2.435-0.666c-0.442-0.439-0.664-1.252-0.664-2.432v-4.429c0-1.922-0.143-2.772,0.771-3.778
		c0.6-0.662,3.178-0.519,3.178-0.519h34.928c3.32,0,6.123-0.313,8.408-0.94c2.289-0.627,4.113-1.642,5.479-3.041
		c1.362-1.4,2.358-3.211,2.985-5.422c0.627-2.214,0.939-3.5,0.939-6.748v-12.328c0-3.17-0.313-5.863-0.939-8.076
		c-0.627-2.211-1.623-4.019-2.985-5.42c-1.365-1.4-3.189-2.414-5.479-3.045c-2.285-0.623-5.088-0.938-8.408-0.938h-50.588
		c-1.549,0-2.877,0.295-3.981,0.885c-1.107,0.593-1.99,1.328-2.654,2.214c-0.664,0.885-1.145,1.881-1.438,2.985
		c-0.293,1.107-0.441,2.176-0.441,3.207c0,1.037,0.148,2.104,0.441,3.211c0.295,1.104,0.791,2.101,1.491,2.986
		c0.703,0.883,1.588,1.604,2.656,2.156c1.07,0.553,2.379,0.83,3.928,0.83h45.613c1.182,0,1.992,0.202,2.436,0.606
		c0.441,0.408,0.664,1.201,0.664,2.379v4.365c0,1.18-0.223,1.99-0.664,2.434c-0.442,0.441-1.254,0.662-2.436,0.662h-32.648
		l-3.131-0.063c-3.319,0-6.123,0.315-8.407,0.94c-2.285,0.629-4.111,1.644-5.478,3.043c-1.365,1.402-2.361,3.209-2.984,5.423
		c-0.629,2.211-0.942,4.903-0.942,8.073v12.33c0,3.246,0.313,4.535,0.942,6.746c0.623,2.213,1.619,4.021,2.984,5.42
		c1.365,1.404,3.191,2.418,5.478,3.045C615.262,214.742,618.062,215.055,621.382,215.055z"/>
	<path fill="#32947B" d="M733.757,233.916c-0.364-1.969-1.067-3.536-2.104-4.704s-2.486-2.005-4.357-2.505
		c-1.869-0.502-4.307-0.752-7.313-0.752h-13.765h-40.672h-6.289h-28.694h-15.011c-1.399,0-2.604,0.228-3.608,0.685
		c-1.004,0.455-1.824,1.053-2.463,1.783c-0.644,0.729-1.101,1.565-1.369,2.512c-0.277,0.943-0.414,1.873-0.414,2.783
		c0,0.977,0.15,1.92,0.455,2.834s0.779,1.733,1.418,2.467c0.639,0.729,1.445,1.307,2.418,1.734c0.975,0.424,2.164,0.639,3.564,0.639
		h0.331c0,0.111-0.006,0.223-0.006,0.33l0.359,28.044c0,2.936,0.184,5.375,0.551,7.313c0.367,1.939,1.07,3.488,2.104,4.656
		c1.035,1.168,2.487,2.004,4.356,2.508c1.871,0.5,4.31,0.75,7.313,0.75h28.694h6.289h54.437c3.006,0,5.442-0.25,7.313-0.75
		c1.871-0.504,3.322-1.34,4.357-2.508s1.738-2.719,2.104-4.656c0.369-1.938,0.554-4.377,0.554-7.313l-0.361-28.044
		C733.948,238.849,734.126,235.888,733.757,233.916z M714.124,267.588c-0.303,0.535-0.955,0.799-1.953,0.799h-73.795
		c-0.998,0-1.649-0.264-1.951-0.799c-0.301-0.537-0.45-1.305-0.45-2.307l-0.359-19.459c0-0.934,0.148-1.668,0.451-2.205
		c0.301-0.526,0.953-0.799,1.951-0.799h73.795c0.998,0,1.649,0.271,1.951,0.799c0.301,0.537,0.45,1.271,0.45,2.205l0.359,19.459
		C714.573,266.283,714.425,267.051,714.124,267.588z"/>
	<g>
		<path fill="#95999E" d="M131.937,146.708c4.855,0,9.357-1.489,13.089-4.028c-5.433-4.24-12.262-6.771-19.687-6.771
			c-4.058,0-7.936,0.763-11.508,2.14C118.1,143.325,124.622,146.708,131.937,146.708z"/>
		<path fill="#95999E" d="M95.499,156.278c-1.414,3.617-2.2,7.549-2.2,11.668c0,7.437,2.538,14.273,6.786,19.709
			c2.601-3.76,4.133-8.313,4.133-13.227C104.218,167.086,100.81,160.547,95.499,156.278z"/>
	</g>
	<g>
		<path d="M129.059,181.075c-2.005,0-3.934-0.617-5.573-1.78c-0.456-0.322-0.562-0.953-0.239-1.406
			c0.321-0.455,0.95-0.563,1.406-0.238c1.297,0.922,2.82,1.408,4.406,1.408c4.208,0,7.631-3.424,7.631-7.631
			c0-1.586-0.486-3.107-1.408-4.406c-0.322-0.453-0.217-1.084,0.239-1.406c0.456-0.321,1.083-0.217,1.405,0.238
			c1.164,1.641,1.781,3.57,1.781,5.574C138.708,176.745,134.379,181.075,129.059,181.075z"/>
	</g>
	<circle cx="119.354" cy="172.731" r="1.696"/>
	<circle cx="130.154" cy="161.932" r="1.696"/>
	<path d="M224.655,258.789c0-0.938,0.757-1.697,1.692-1.697c0.938,0,1.696,0.76,1.696,1.697c0,0.932-0.759,1.691-1.696,1.691
		C225.412,260.481,224.655,259.721,224.655,258.789z"/>
	<path d="M214.695,268.748c0-0.938,0.759-1.697,1.693-1.697c0.937,0,1.696,0.76,1.696,1.697c0,0.934-0.76,1.693-1.696,1.693
		C215.454,270.442,214.695,269.682,214.695,268.748z"/>
	<g>
		<path fill="#2C3645" d="M229.979,277.744c0,2.855,0.354,5.625,1.009,8.277c5.62,1.162,10.736,3.693,14.99,7.23
			c7.224-5.875,11.84-14.83,11.84-24.867c0-8.342-3.191-15.939-8.417-21.638C237.907,252.324,229.979,264.11,229.979,277.744z"/>
		<path fill="#2C3645" d="M236.894,298.446c-2.746-3.648-4.781-7.857-5.906-12.424c-2.265-0.467-4.606-0.715-7.008-0.715
			c-7.499,0-14.432,2.4-20.085,6.473c5.727,5.359,13.419,8.648,21.885,8.648C229.686,300.428,233.431,299.725,236.894,298.446z"/>
		<path fill="#2C3645" d="M236.894,298.446c3.323-1.232,6.384-3,9.084-5.193c-4.254-3.537-9.37-6.068-14.99-7.23
			C232.113,290.588,234.148,294.797,236.894,298.446z"/>
	</g>
	<g>
		<path d="M213.306,262.807c-0.188,0-0.375-0.059-0.538-0.17c-1.531-1.076-2.445-2.828-2.445-4.689c0-3.162,2.573-5.734,5.736-5.734
			c1.859,0,3.613,0.914,4.688,2.443c0.298,0.422,0.196,1.008-0.228,1.307c-0.422,0.295-1.008,0.193-1.304-0.229
			c-0.726-1.033-1.905-1.652-3.157-1.652c-2.131,0-3.863,1.736-3.863,3.865c0,1.252,0.615,2.434,1.647,3.158
			c0.424,0.295,0.526,0.881,0.228,1.303C213.89,262.666,213.599,262.807,213.306,262.807z"/>
	</g>
	<rect x="151.018" y="193.868" fill="#CF9978" width="49.08" height="48.118"/>
	<rect x="151.018" y="216.788" fill="#FFFFFF" width="49.08" height="2.854"/>
	
		<rect x="163.586" y="216.584" transform="matrix(-0.7072 0.707 -0.707 -0.7072 454.105 247.9644)" fill="#FFFFFF" width="24.244" height="2.856"/>
	
		<rect x="163.592" y="216.579" transform="matrix(0.7071 0.7071 -0.7071 0.7071 205.6232 -60.395)" fill="#FFFFFF" width="24.243" height="2.856"/>
	<rect x="174.058" y="193.868" fill="#FFFFFF" width="2.856" height="48.118"/>
	<g>
		<path fill="#472F31" d="M799.503,215.211c0,3.317,0.925,5.696,2.769,7.135c1.842,1.438,3.908,2.158,6.194,2.158
			c1.105,0,2.193-0.166,3.265-0.498c1.067-0.332,2.045-0.867,2.932-1.604c0.885-0.736,1.584-1.695,2.103-2.877
			c0.516-1.18,0.774-2.615,0.774-4.313v-4.048h31.912h0.996c3.32,0,5.699-0.922,7.137-2.766c1.437-1.842,2.156-3.908,2.156-6.193
			c0-1.108-0.166-2.192-0.498-3.266c-0.33-1.068-0.865-2.045-1.602-2.93c-0.738-0.888-1.697-1.588-2.877-2.103
			c-1.181-0.516-2.617-0.772-4.316-0.772h-0.873c0.896-1.209,1.582-2.648,2.055-4.319c0.627-2.213,0.941-4.941,0.941-8.186v-21.498
			c0-3.17-0.314-5.863-0.941-8.076c-0.625-2.211-1.621-4.021-2.987-5.42c-1.363-1.4-3.188-2.416-5.478-3.043
			c-2.281-0.625-5.086-0.939-8.403-0.939h-63.726c-1.547,0-2.873,0.275-3.979,0.83c-1.105,0.551-1.992,1.271-2.656,2.156
			s-1.141,1.863-1.438,2.932c-0.295,1.07-0.442,2.119-0.442,3.152c0,1.035,0.147,2.084,0.442,3.151
			c0.298,1.07,0.795,2.031,1.494,2.88c0.701,0.848,1.586,1.547,2.654,2.1c1.07,0.555,2.379,0.83,3.926,0.83h57.31
			c1.18,0,1.991,0.205,2.432,0.608c0.445,0.406,0.664,1.199,0.664,2.378v4.813h-60.904c-1.547,0-2.873,0.275-3.979,0.83
			c-1.105,0.551-1.992,1.271-2.656,2.156s-1.141,1.862-1.438,2.932c-0.295,1.07-0.443,2.119-0.443,3.152
			c0,1.035,0.148,2.084,0.443,3.151c0.297,1.07,0.795,2.031,1.493,2.88c0.701,0.848,1.587,1.547,2.654,2.1
			c1.07,0.555,2.379,0.83,3.926,0.83h60.816c-0.312,0.95-1.498,4.295-3.719,7.619h-56.613c-1.695,0-3.133,0.258-4.314,0.772
			c-1.178,0.515-2.137,1.215-2.877,2.103c-0.735,0.885-1.271,1.86-1.604,2.93c-0.332,1.072-0.498,2.156-0.498,3.266
			c0,2.285,0.719,4.353,2.156,6.193c1.438,1.844,3.817,2.766,7.137,2.766h28.484v4.048H799.503z"/>
		<path fill="#472F31" d="M883.678,142.733c-0.563-1.236-1.294-2.25-2.193-3.037c-0.9-0.787-1.935-1.352-3.094-1.688
			c-1.162-0.338-2.308-0.506-3.433-0.506c-1.201,0-2.362,0.184-3.487,0.563c-1.125,0.375-2.138,0.957-3.037,1.744
			c-0.9,0.787-1.611,1.779-2.138,2.979c-0.522,1.197-0.786,2.664-0.786,4.39v60.627c0,1.725,0.264,3.188,0.786,4.389
			c0.525,1.197,1.236,2.193,2.138,2.98c0.899,0.789,1.912,1.369,3.037,1.744s2.286,0.563,3.487,0.563
			c1.125,0,2.271-0.168,3.433-0.506c1.159-0.338,2.192-0.9,3.094-1.688c0.9-0.791,1.631-1.803,2.193-3.036
			c0.563-1.238,0.844-2.722,0.844-4.445v-60.627C884.521,145.454,884.239,143.971,883.678,142.733z"/>
		<path fill="#472F31" d="M883.05,234.816c-0.625-2.211-1.62-4.02-2.987-5.42c-1.363-1.4-3.188-2.416-5.478-3.043
			c-2.28-0.625-5.086-0.939-8.403-0.939h-86.09c-1.548,0-2.873,0.275-3.98,0.83c-1.105,0.552-1.992,1.271-2.656,2.156
			s-1.141,1.863-1.438,2.932c-0.295,1.07-0.443,2.119-0.443,3.152c0,1.035,0.148,2.084,0.443,3.152
			c0.297,1.069,0.795,2.031,1.494,2.879c0.7,0.848,1.586,1.547,2.653,2.1c1.07,0.556,2.379,0.83,3.927,0.83h79.674
			c1.18,0,1.992,0.205,2.432,0.609c0.289,0.264,0.473,0.708,0.572,1.299v28.993c0,1.996,0.305,3.688,0.91,5.08
			c0.604,1.385,1.432,2.514,2.475,3.385c1.043,0.867,2.191,1.498,3.449,1.887c1.262,0.393,2.539,0.588,3.844,0.588
			c2.691,0,5.123-0.848,7.291-2.539c2.17-1.693,3.256-4.492,3.256-8.4v-32.229h-0.021
			C883.923,239.289,883.624,236.843,883.05,234.816z"/>
	</g>
</g>
</svg>
